{"title":"The.100.S02E01.480p.sub.spanish","uid":11291019,"size":743763566,"categoryP":"video","categoryS":"tv_shows","magnet":"?xt=urn:btih:398a8507c5db776c3aa7799c6dfbb4a666ed5437&amp;dn=The.100.S02E01.480p.sub.spanish&amp;tr=udp%3A%2F%2Ftracker.openbittorrent.com%3A80&amp;tr=udp%3A%2F%2Fopen.demonii.com%3A1337&amp;tr=udp%3A%2F%2Ftracker.coppersurfer.tk%3A6969&amp;tr=udp%3A%2F%2Fexodus.desync.com%3A6969","seeders":2,"leechers":0,"uploader":"sekininsha","files":1,"time":1414328795,"description":"Video\nID : 1 \nFormat : AVC \nFormat/Info : Advanced Video Codec \nFormat profile : &lt;a class=&quot;__cf_email__&quot; href=&quot;/cdn-cgi/l/email-protection&quot; data-cfemail=&quot;b9f1d0ded1f9f58d9788&quot;&gt;[email&amp;#160;protected]&lt;/a&gt;&lt;script cf-hash='f9e31' type=&quot;text/javascript&quot;&gt;\n/* &lt;![CDATA[ */!function(){try{var t=&quot;currentScript&quot;in document?document.currentScript:function(){for(var t=document.getElementsByTagName(&quot;script&quot;),e=t.length;e--;)if(t[e].getAttribute(&quot;cf-hash&quot;))return t[e]}();if(t&amp;&amp;t.previousSibling){var e,r,n,i,c=t.previousSibling,a=c.getAttribute(&quot;data-cfemail&quot;);if(a){for(e=&quot;&quot;,r=parseInt(a.substr(0,2),16),n=2;a.length-n;n+=2)i=parseInt(a.substr(n,2),16)^r,e+=String.fromCharCode(i);e=document.createTextNode(e),c.parentNode.replaceChild(e,c)}}}catch(u){}}();/* ]]&gt; */&lt;/script&gt; \nFormat settings, CABAC : Yes \nFormat settings, ReFrames : 5 frames \nCodec ID : V_MPEG4/ISO/AVC \nDuration : 42mn 21s \nBit rate : 1 911 Kbps \nWidth : 720 pixels \nHeight : 404 pixels \nDisplay aspect ratio : 16:9 \nFrame rate mode : Constant \nFrame rate : 23.976 fps \nColor space : YUV \nChroma subsampling : 4:2:0 \nBit depth : 8 bits \nScan type : Progressive \nBits/(Pixel*Frame) : 0.274 \nStream size : 579 MiB (82%) \n\nAudio \nID : 2 \nFormat : AC-3 \nFormat/Info : Audio Coding 3 \nMode extension : CM (complete main) \nFormat settings, Endianness : Big \nCodec ID : A_AC3 \nDuration : 42mn 21s \nBit rate mode : Constant \nBit rate : 384 Kbps \nChannel(s) : 6 channels \nChannel positions : Front: L C R, Side: L R, LFE \nSampling rate : 48.0 KHz \nBit depth : 16 bits \nCompression mode : Lossy \nStream size : 116 MiB (16%) \nDefault : Yes \nForced : No \n\nMenu \n00:00:00.000 : en:00:00:00.000 \n00:04:29.796 : en:00:04:29.796 \n00:08:25.985 : en:00:08:25.985 \n00:12:40.127 : en:00:12:40.127 \n00:16:43.420 : en:00:16:43.420 \n00:22:26.007 : en:00:22:26.007 \n00:26:43.420 : en:00:26:43.420 \n00:30:43.420 : en:00:30:43.420 \n00:35:26.007 : en:00:35:26.007 \n00:40:43.420 : en:00:40:43.420","torrent":{"xt":"urn:btih:398a8507c5db776c3aa7799c6dfbb4a666ed5437","amp;dn":"The.100.S02E01.480p.sub.spanish","amp;tr":["udp%3A%2F%2Ftracker.openbittorrent.com%3A80","udp%3A%2F%2Fopen.demonii.com%3A1337","udp%3A%2F%2Ftracker.coppersurfer.tk%3A6969","udp%3A%2F%2Fexodus.desync.com%3A6969"],"infoHash":"398a8507c5db776c3aa7799c6dfbb4a666ed5437","infoHashBuffer":{"type":"Buffer","data":[57,138,133,7,197,219,119,108,58,167,121,156,109,251,180,166,102,237,84,55]},"announce":[],"urlList":[]}}